HIERARCHY
ROOT Hips
{
	OFFSET -0.001795 -0.223333 0.028219
	CHANNELS 6 Xposition Yposition Zposition Zrotation Yrotation Xrotation 
	JOINT LeftUpLeg
	{
		OFFSET 0.069520 -0.091406 -0.006815
		CHANNELS 3 Zrotation Yrotation Xrotation
		JOINT LeftLeg
		{
			OFFSET 0.034277 -0.375199 -0.004496
			CHANNELS 3 Zrotation Yrotation Xrotation
			JOINT LeftFoot
			{
				OFFSET -0.013596 -0.397961 -0.043693
				CHANNELS 3 Zrotation Yrotation Xrotation
				JOINT LeftToe
				{
					OFFSET 0.026358 -0.055791 0.119288
					CHANNELS 3 Zrotation Yrotation Xrotation
					End Site
					{
						OFFSET 0.000000 0.000000 0.000000
					}
				}
			}
		}
	}
	JOINT RightUpLeg
	{
		OFFSET -0.067670 -0.090522 -0.004320
		CHANNELS 3 Zrotation Yrotation Xrotation
		JOINT RightLeg
		{
			OFFSET -0.038290 -0.382569 -0.008850
			CHANNELS 3 Zrotation Yrotation Xrotation
			JOINT RightFoot
			{
				OFFSET 0.015774 -0.398415 -0.042312
				CHANNELS 3 Zrotation Yrotation Xrotation
				JOINT RightToe
				{
					OFFSET -0.025372 -0.048144 0.123348
					CHANNELS 3 Zrotation Yrotation Xrotation
					End Site
					{
						OFFSET 0.000000 0.000000 0.000000
					}
				}
			}
		}
	}
	JOINT Spine
	{
		OFFSET -0.002533 0.108963 -0.026696
		CHANNELS 3 Zrotation Yrotation Xrotation
		JOINT Spine1
		{
			OFFSET 0.005487 0.135180 0.001092
			CHANNELS 3 Zrotation Yrotation Xrotation
			JOINT Spine2
			{
				OFFSET 0.001457 0.052922 0.025425
				CHANNELS 3 Zrotation Yrotation Xrotation
				JOINT Neck
				{
					OFFSET -0.002778 0.213870 -0.042857
					CHANNELS 3 Zrotation Yrotation Xrotation
					JOINT Head
					{
						OFFSET 0.005152 0.064970 0.051349
						CHANNELS 3 Zrotation Yrotation Xrotation
						End Site
						{
							OFFSET 0.000000 0.000000 0.000000
						}
					}
				}
				JOINT LeftShoulder
				{
					OFFSET 0.078845 0.121749 -0.034090
					CHANNELS 3 Zrotation Yrotation Xrotation
					JOINT LeftArm
					{
						OFFSET 0.090977 0.030469 -0.008868
						CHANNELS 3 Zrotation Yrotation Xrotation
						JOINT LeftForeArm
						{
							OFFSET 0.259612 -0.012772 -0.027456
							CHANNELS 3 Zrotation Yrotation Xrotation
							JOINT LeftHand
							{
								OFFSET 0.249234 0.008986 -0.001171
								CHANNELS 3 Zrotation Yrotation Xrotation
								End Site
								{
									OFFSET 0.000000 0.000000 0.000000
								}
							}
						}
					}
				}
				JOINT RightShoulder
				{
					OFFSET -0.081759 0.118833 -0.038615
					CHANNELS 3 Zrotation Yrotation Xrotation
					JOINT RightArm
					{
						OFFSET -0.096012 0.032551 -0.009143
						CHANNELS 3 Zrotation Yrotation Xrotation
						JOINT RightForeArm
						{
							OFFSET -0.253742 -0.013329 -0.021401
							CHANNELS 3 Zrotation Yrotation Xrotation
							JOINT RightHand
							{
								OFFSET -0.255298 0.007772 -0.005559
								CHANNELS 3 Zrotation Yrotation Xrotation
								End Site
								{
									OFFSET 0.000000 0.000000 0.000000
								}
							}
						}
					}
				}
			}
		}
	}
}
MOTION
Frames: 9
Frame Time: 0.050000
0.000000 0.955310 0.000000 -0.068621 2.237008 1.796302 4.444719 0.113702 4.184289 -2.376569 0.341542 -7.838466 5.269071 13.557298 13.893395 0.000000 0.000000 0.000000 -2.892522 -0.012412 1.024282 0.080078 0.013317 0.584388 -5.542081 -15.021237 10.744261 0.000000 0.000000 0.000000 0.169683 -0.081061 1.868740 2.523528 0.079327 -25.024224 -1.654971 -1.038346 27.300341 0.800838 1.106990 -25.028039 0.000000 0.000000 0.000000 5.634817 1.424848 -0.216755 -8.722446 -8.493841 -1.260448 12.151563 5.412800 0.458372 0.000000 0.000000 0.000000 -11.495043 2.532514 0.895787 11.787230 9.865828 -1.224266 -9.943977 -2.845813 0.408285 0.000000 0.000000 0.000000 
0.000074 0.954455 0.001132 -0.433437 2.102638 2.228886 4.243191 0.147645 4.684749 -1.359694 0.344631 -9.879600 4.831868 12.922481 14.112336 0.000000 0.000000 0.000000 -2.545962 -0.038141 1.254941 -0.255917 0.006978 -0.509006 -6.732769 -17.278555 11.015498 0.000000 0.000000 0.000000 0.805129 -0.095194 1.729366 1.941717 0.235436 -25.622750 -1.534941 -0.947717 27.067928 -0.843576 2.153382 -26.713110 0.000000 0.000000 0.000000 4.884020 1.628473 -0.310412 -9.671164 -8.438825 -1.338520 11.291162 5.039589 0.390731 0.000000 0.000000 0.000000 -11.757336 1.353464 0.615696 13.495240 9.468517 -1.324394 -8.941543 -0.944678 0.268462 0.000000 0.000000 0.000000 
0.000031 0.952768 0.002095 -0.207690 0.990439 1.860089 3.941819 0.213349 5.168134 -1.232356 0.334358 -8.995719 6.035930 14.556779 13.577047 0.000000 0.000000 0.000000 -3.386345 -0.014772 1.414184 0.441865 -0.071062 -0.664855 -5.442586 -14.941120 10.830263 0.000000 0.000000 0.000000 1.041460 -0.119930 2.107344 1.374459 0.384685 -26.653541 -1.110990 0.440805 28.848616 -0.402402 2.056767 -27.656384 0.000000 0.000000 0.000000 4.816900 1.550951 -0.278103 -10.393877 -9.690840 -1.400101 10.949122 6.794729 0.469736 0.000000 0.000000 0.000000 -11.364032 0.784637 0.353496 15.519556 10.346254 -1.432487 -10.556411 -2.414964 0.434094 0.000000 0.000000 0.000000 
-0.000046 0.952372 0.003016 -0.175136 1.394749 1.581599 4.054595 0.220529 5.500104 -1.443704 0.336026 -8.936568 5.748430 14.068404 12.894997 0.000000 0.000000 0.000000 -3.400292 -0.050224 1.834092 0.519747 -0.085851 -0.851454 -5.989477 -16.034369 12.199680 0.000000 0.000000 0.000000 0.666081 -0.094306 1.838993 1.636182 0.313013 -26.187448 -1.330132 -0.271350 29.394560 -1.592806 2.682203 -28.738097 0.000000 0.000000 0.000000 3.741443 1.164360 -0.235866 -12.129894 -9.112470 -1.580632 12.389869 6.696503 0.568915 0.000000 0.000000 0.000000 -11.160600 2.109909 0.727492 15.853581 9.414199 -1.517434 -8.983309 -3.140742 0.390797 0.000000 0.000000 0.000000 
-0.000331 0.952034 0.003770 0.039185 1.900609 1.404132 4.181306 0.210891 5.599667 -1.900056 0.339609 -8.651525 5.130039 13.156681 12.854370 0.000000 0.000000 0.000000 -3.695087 -0.067461 2.152470 0.572463 -0.104981 -1.237945 -5.971019 -16.014238 12.995950 0.000000 0.000000 0.000000 -0.112249 -0.082412 2.114880 2.218266 0.189171 -26.168342 -1.580240 -0.095755 28.875115 -1.371714 2.621776 -28.021011 0.000000 0.000000 0.000000 3.725478 0.554300 -0.013999 -13.918799 -9.778483 -1.660367 12.663748 5.951640 0.523204 0.000000 0.000000 0.000000 -10.288108 2.402789 0.770911 18.110820 8.549885 -1.701194 -9.443998 -2.235790 0.377268 0.000000 0.000000 0.000000 
-0.000526 0.952060 0.004317 0.249722 2.807648 1.610363 4.115641 0.178271 5.183428 -1.773165 0.324973 -8.451107 4.428951 12.089678 12.479378 0.000000 0.000000 0.000000 -4.021227 -0.047415 1.935821 0.616994 -0.105957 -1.111449 -6.298731 -16.528530 13.256782 0.000000 0.000000 0.000000 -0.773062 -0.048614 1.733677 2.446796 0.134785 -25.759756 -1.636450 -1.081930 28.897333 -1.616731 2.713044 -29.008560 0.000000 0.000000 0.000000 2.950312 0.471118 -0.034998 -16.173066 -10.239174 -1.813295 13.746504 4.838801 0.507656 0.000000 0.000000 0.000000 -10.148340 2.992101 0.964516 20.803581 8.350277 -1.894454 -10.092262 -1.929098 0.387885 0.000000 0.000000 0.000000 
-0.000629 0.951617 0.004541 0.379971 2.770794 1.564844 4.161873 0.172421 5.100293 -2.121788 0.333606 -8.270628 4.610489 12.345471 12.358364 0.000000 0.000000 0.000000 -4.324068 -0.036666 1.940014 0.611194 -0.106155 -1.137188 -6.113331 -16.194778 13.167293 0.000000 0.000000 0.000000 -0.983996 -0.046526 1.846145 2.673658 0.061271 -25.245108 -1.664510 -1.131615 28.591082 -1.731460 2.758888 -28.852411 0.000000 0.000000 0.000000 1.501132 0.581028 -0.134206 -17.618179 -10.478353 -1.889157 14.034733 3.642686 0.423969 0.000000 0.000000 0.000000 -9.263102 3.552536 1.139120 22.887494 7.153631 -2.182194 -10.728695 -0.473186 0.321023 0.000000 0.000000 0.000000 
-0.000545 0.951069 0.004550 0.230773 2.860250 1.705438 4.245265 0.140602 4.634803 -2.076021 0.322374 -7.556189 4.805669 12.631810 12.232880 0.000000 0.000000 0.000000 -4.349785 0.010875 1.225851 1.029642 -0.129777 -0.499548 -6.105315 -16.140990 12.634330 0.000000 0.000000 0.000000 -0.991551 -0.047708 1.899183 2.745298 0.052777 -25.398258 -1.453537 -0.824864 28.994882 -1.227179 2.534693 -28.605914 0.000000 0.000000 0.000000 -0.416192 0.228579 -0.101357 -18.989471 -10.824663 -1.968497 15.012275 2.198746 0.316997 0.000000 0.000000 0.000000 -8.051196 3.724629 1.163811 25.243601 6.269975 -2.537900 -11.702755 1.035636 0.254156 0.000000 0.000000 0.000000 
-0.000444 0.950560 0.004200 0.090476 2.735720 1.743973 4.415569 0.123745 4.488905 -2.233736 0.324060 -7.116008 4.778559 12.480131 11.672540 0.000000 0.000000 0.000000 -4.468608 0.030274 1.004257 1.391253 -0.170685 -0.588597 -6.007523 -15.974942 12.652132 0.000000 0.000000 0.000000 -0.996444 -0.053546 2.085354 2.852671 0.020413 -25.262729 -1.281960 -0.848124 29.025309 -1.229507 2.530177 -28.894992 0.000000 0.000000 0.000000 -2.197113 -0.058516 -0.082150 -20.904397 -11.304815 -2.050499 16.875526 0.686852 0.205950 0.000000 0.000000 0.000000 -6.860181 4.651025 1.459541 27.233188 4.993420 -2.940750 -12.555686 2.694807 0.136824 0.000000 0.000000 0.000000 
